<?xml version="1.0" encoding="UTF-8" ?>
<!DOCTYPE svg PUBLIC "-//W3C//DTD SVG 1.1//EN" "http://www.w3.org/Graphics/SVG/1.1/DTD/svg11.dtd">
<svg width="158pt" height="141pt" viewBox="0 0 158 141" version="1.1" xmlns="http://www.w3.org/2000/svg">
<path fill="#ffffff" d=" M 0.00 0.00 L 99.33 0.00 C 99.35 0.13 99.40 0.39 99.42 0.52 C 97.64 2.32 96.22 4.52 94.17 6.04 C 89.85 7.95 85.33 9.43 81.13 11.64 C 83.05 12.97 84.98 14.29 86.85 15.70 C 83.35 20.43 77.40 23.43 75.88 29.49 C 80.34 28.59 84.64 27.07 89.07 26.04 C 87.93 30.74 86.54 35.36 85.33 40.04 C 83.90 45.34 84.36 51.00 82.34 56.16 C 80.53 61.82 76.98 67.73 79.08 73.81 C 80.88 77.75 84.64 80.95 89.01 81.56 C 91.53 81.95 93.69 83.32 95.77 84.70 C 91.68 89.76 86.57 94.77 79.99 96.13 C 77.16 95.85 75.84 92.74 74.27 90.72 C 70.63 85.42 71.95 78.80 72.49 72.85 C 71.06 71.58 69.64 70.32 68.23 69.04 C 66.46 69.69 64.71 70.36 62.95 71.02 C 61.01 68.36 59.16 65.63 57.51 62.78 C 60.89 60.65 65.52 59.02 66.83 54.88 C 66.87 49.30 58.94 48.99 58.16 43.71 C 57.14 40.05 53.88 37.79 50.26 37.20 C 49.93 36.71 49.28 35.73 48.95 35.25 C 47.78 35.45 46.62 35.66 45.46 35.87 C 45.13 35.24 44.48 33.97 44.15 33.33 C 38.33 36.59 32.64 40.21 27.72 44.73 C 24.86 47.56 21.93 50.90 21.52 55.07 C 21.26 57.96 23.18 60.32 24.71 62.56 C 28.43 61.20 31.99 59.34 35.91 58.56 C 33.82 60.74 30.85 62.55 30.54 65.88 C 32.43 64.59 34.13 63.04 35.82 61.50 C 35.03 64.70 34.40 67.97 34.72 71.29 C 41.22 70.86 44.59 64.90 48.91 60.92 C 53.34 75.65 67.51 84.61 72.25 99.17 C 73.36 103.17 71.19 108.04 74.46 111.40 C 76.70 114.92 81.96 113.58 84.10 117.04 C 86.85 120.61 89.23 124.45 91.78 128.16 C 88.34 128.93 84.61 129.68 82.49 132.80 C 83.29 134.67 83.49 137.51 85.94 137.96 C 89.63 138.40 93.24 137.08 96.92 137.24 C 98.90 138.01 100.27 139.78 101.97 141.00 L 0.00 141.00 L 0.00 135.10 C 4.00 137.69 8.51 134.94 12.65 134.25 C 13.71 135.56 14.31 137.57 16.09 138.08 C 20.13 139.34 24.04 136.11 28.10 137.40 C 33.32 138.72 39.03 140.34 44.01 137.29 C 45.84 138.25 47.59 140.27 49.86 139.55 C 52.53 139.26 55.05 136.93 54.51 134.07 C 53.43 126.65 48.01 119.76 40.83 117.36 C 42.59 114.13 45.25 110.95 44.66 107.00 C 44.04 98.16 42.56 88.88 37.47 81.40 C 35.87 78.79 34.79 75.92 33.46 73.18 C 30.27 75.85 29.01 79.84 27.21 83.42 C 26.69 83.63 25.67 84.04 25.16 84.24 C 24.87 84.67 24.30 85.52 24.01 85.94 C 23.35 84.03 22.66 82.14 21.86 80.29 C 19.34 85.38 20.20 91.37 17.71 96.50 C 14.78 103.61 11.05 112.03 15.30 119.43 C 12.62 119.88 9.39 119.18 7.33 121.34 C 4.42 124.12 2.38 127.63 0.00 130.84 L 0.00 0.00 Z" />
<path fill="#000000" d=" M 99.33 0.00 L 99.69 0.00 C 99.80 0.50 100.03 1.50 100.14 2.00 C 101.51 2.85 102.88 3.72 104.25 4.59 C 106.31 3.19 108.34 1.74 110.29 0.19 L 107.06 0.00 L 110.12 0.00 C 111.22 1.21 112.27 2.46 113.34 3.70 C 116.09 3.02 118.77 2.12 121.44 1.17 C 121.89 2.47 122.34 3.77 122.79 5.07 C 126.17 4.58 129.52 3.89 132.89 3.35 C 133.19 4.61 133.54 5.84 133.95 7.06 C 137.03 7.44 140.13 7.51 143.21 7.93 C 142.48 9.78 141.70 11.60 140.90 13.43 C 144.36 13.97 147.84 14.54 151.07 15.95 C 149.36 17.58 147.56 19.09 145.71 20.56 C 147.27 22.78 149.05 24.83 150.70 26.97 C 148.33 27.76 148.12 30.23 147.47 32.27 C 148.02 34.94 148.60 37.60 149.15 40.28 C 153.92 40.81 156.75 44.80 158.00 49.09 L 158.00 56.03 C 156.58 59.91 154.40 63.60 150.75 65.74 C 150.05 70.58 148.24 75.16 145.57 79.26 C 148.72 88.53 154.23 97.04 155.63 106.87 C 155.92 109.75 155.77 113.20 153.39 115.23 C 151.06 116.06 148.63 116.68 146.20 117.12 C 144.31 116.82 142.62 115.85 140.86 115.15 C 140.65 118.63 139.82 122.17 140.60 125.62 C 141.71 128.81 144.54 131.42 144.35 135.02 C 144.51 138.46 140.90 140.03 138.20 141.00 L 131.84 141.00 C 132.14 139.20 128.88 139.26 129.08 141.00 L 123.43 141.00 C 122.19 139.60 120.33 138.19 120.75 136.06 C 121.40 132.71 122.90 129.61 123.82 126.34 C 122.26 126.65 120.68 126.89 119.10 127.06 C 117.77 126.21 116.57 125.16 115.32 124.19 C 113.38 127.49 114.89 131.07 115.10 134.55 C 113.97 137.71 109.79 137.35 107.10 138.00 C 106.15 139.01 105.20 140.02 104.21 141.00 L 101.97 141.00 C 100.27 139.78 98.90 138.01 96.92 137.24 C 93.24 137.08 89.63 138.40 85.94 137.96 C 83.49 137.51 83.29 134.67 82.49 132.80 C 84.61 129.68 88.34 128.93 91.78 128.16 C 89.23 124.45 86.85 120.61 84.10 117.04 C 81.96 113.58 76.70 114.92 74.46 111.40 C 71.19 108.04 73.36 103.17 72.25 99.17 C 67.51 84.61 53.34 75.65 48.91 60.92 C 44.59 64.90 41.22 70.86 34.72 71.29 C 34.40 67.97 35.03 64.70 35.82 61.50 C 34.13 63.04 32.43 64.59 30.54 65.88 C 30.85 62.55 33.82 60.74 35.91 58.56 C 31.99 59.34 28.43 61.20 24.71 62.56 C 23.18 60.32 21.26 57.96 21.52 55.07 C 21.93 50.90 24.86 47.56 27.72 44.73 C 32.64 40.21 38.33 36.59 44.15 33.33 C 44.48 33.97 45.13 35.24 45.46 35.87 C 46.62 35.66 47.78 35.45 48.95 35.25 C 49.28 35.73 49.93 36.71 50.26 37.20 C 53.88 37.79 57.14 40.05 58.16 43.71 C 58.94 48.99 66.87 49.30 66.83 54.88 C 65.52 59.02 60.89 60.65 57.51 62.78 C 59.16 65.63 61.01 68.36 62.95 71.02 C 64.71 70.36 66.46 69.69 68.23 69.04 C 69.64 70.32 71.06 71.58 72.49 72.85 C 71.95 78.80 70.63 85.42 74.27 90.72 C 75.84 92.74 77.16 95.85 79.99 96.13 C 86.57 94.77 91.68 89.76 95.77 84.70 C 93.69 83.32 91.53 81.95 89.01 81.56 C 84.64 80.95 80.88 77.75 79.08 73.81 C 76.98 67.73 80.53 61.82 82.34 56.16 C 84.36 51.00 83.90 45.34 85.33 40.04 C 86.54 35.36 87.93 30.74 89.07 26.04 C 84.64 27.07 80.34 28.59 75.88 29.49 C 77.40 23.43 83.35 20.43 86.85 15.70 C 84.98 14.29 83.05 12.97 81.13 11.64 C 85.33 9.43 89.85 7.95 94.17 6.04 C 96.22 4.52 97.64 2.32 99.42 0.52 C 99.40 0.39 99.35 0.13 99.33 0.00 Z" />
<path fill="#ffffff" d=" M 99.69 0.00 L 107.06 0.00 L 110.29 0.19 C 108.34 1.74 106.31 3.19 104.25 4.59 C 102.88 3.72 101.51 2.85 100.14 2.00 C 100.03 1.50 99.80 0.50 99.69 0.00 Z" />
<path fill="#ffffff" d=" M 110.12 0.00 L 158.00 0.00 L 158.00 49.09 C 156.75 44.80 153.92 40.81 149.15 40.28 C 148.60 37.60 148.02 34.94 147.47 32.27 C 148.12 30.23 148.33 27.76 150.70 26.97 C 149.05 24.83 147.27 22.78 145.71 20.56 C 147.56 19.09 149.36 17.58 151.07 15.95 C 147.84 14.54 144.36 13.97 140.90 13.43 C 141.70 11.60 142.48 9.78 143.21 7.93 C 140.13 7.51 137.03 7.44 133.95 7.06 C 133.54 5.84 133.19 4.61 132.89 3.35 C 129.52 3.89 126.17 4.58 122.79 5.07 C 122.34 3.77 121.89 2.47 121.44 1.17 C 118.77 2.12 116.09 3.02 113.34 3.70 C 112.27 2.46 111.22 1.21 110.12 0.00 Z" />
<path fill="#000000" d=" M 40.23 12.39 C 38.06 11.20 37.91 8.23 39.58 6.56 C 40.12 8.45 40.49 10.42 40.23 12.39 Z" />
<path fill="#000000" d=" M 32.18 10.05 C 33.98 10.92 35.67 12.22 36.16 14.27 C 34.36 13.41 32.62 12.11 32.18 10.05 Z" />
<path fill="#000000" d=" M 43.91 14.81 C 44.17 12.58 46.40 12.17 48.24 12.04 C 47.57 13.92 45.57 14.27 43.91 14.81 Z" />
<path fill="#6b4b26" d=" M 35.73 16.21 C 37.03 14.18 40.35 12.29 41.95 15.07 C 43.72 17.19 41.10 19.31 38.97 19.04 C 37.22 19.42 36.76 17.14 35.73 16.21 Z" />
<path fill="#000000" d=" M 29.54 17.83 C 30.06 15.41 32.31 16.48 33.99 16.73 C 32.82 17.94 31.07 17.74 29.54 17.83 Z" />
<path fill="#000000" d=" M 43.42 18.99 C 44.84 18.17 47.06 20.53 46.50 21.98 C 45.02 22.61 42.92 20.51 43.42 18.99 Z" />
<path fill="#000000" d=" M 32.47 23.74 C 33.57 22.25 34.87 20.82 36.92 20.95 C 36.26 21.83 35.60 22.70 34.93 23.56 C 35.03 27.00 33.15 30.03 32.10 33.20 C 29.10 30.82 32.34 28.15 33.79 26.01 C 33.46 25.45 32.80 24.31 32.47 23.74 Z" />
<path fill="#000000" d=" M 38.99 22.36 C 40.79 21.54 42.41 25.59 40.15 25.79 C 38.71 25.55 38.11 23.44 38.99 22.36 Z" />
<path fill="#ffcc99" d=" M 95.56 30.47 C 98.11 28.68 100.90 27.27 103.86 26.30 C 105.13 28.57 106.43 30.82 107.86 33.00 C 110.63 30.97 112.92 28.36 115.77 26.42 C 116.96 28.73 118.15 31.05 119.37 33.35 C 120.64 32.47 121.90 31.56 123.25 30.79 C 124.90 31.37 125.98 32.91 127.34 33.94 C 128.52 32.56 129.12 30.36 130.88 29.64 C 133.81 30.62 136.32 32.48 138.96 34.03 C 139.58 32.73 140.19 31.41 140.79 30.09 C 142.47 30.55 144.57 30.73 145.47 32.49 C 146.84 35.14 146.93 38.18 147.15 41.08 C 145.69 42.44 144.23 43.91 143.84 45.96 C 145.26 44.73 146.40 43.13 148.06 42.19 C 152.34 41.95 155.62 45.92 155.99 49.93 C 157.19 55.55 154.96 62.74 148.88 64.40 C 146.53 63.66 144.39 62.48 142.22 61.35 C 143.65 63.71 146.32 64.61 148.83 65.33 C 148.44 70.79 146.07 76.27 141.43 79.41 C 133.79 84.77 124.02 84.90 115.06 85.26 C 111.71 85.30 108.36 85.20 105.04 84.84 C 101.47 84.69 99.40 81.87 99.14 78.51 L 99.04 78.14 C 104.70 76.09 109.76 72.26 115.97 71.93 C 121.71 70.67 126.95 73.63 132.34 74.97 C 131.56 72.88 129.33 72.36 127.41 71.85 C 122.08 70.62 116.56 70.69 111.14 71.09 C 113.78 66.86 117.96 63.15 118.32 57.88 C 118.40 55.23 119.76 51.84 117.52 49.75 C 117.21 54.78 117.10 60.03 114.62 64.56 C 111.06 71.16 104.17 75.01 97.59 78.03 C 94.43 74.15 90.25 70.34 89.94 65.01 C 89.77 61.43 89.93 57.33 92.54 54.57 C 94.88 52.08 97.83 50.29 100.73 48.55 C 101.88 48.42 103.04 48.29 104.20 48.18 C 102.92 47.36 101.36 47.42 99.91 47.24 C 99.60 46.93 98.97 46.32 98.66 46.02 C 98.22 45.56 97.32 44.64 96.88 44.18 C 97.33 43.94 98.23 43.45 98.68 43.21 L 99.70 42.69 C 97.79 42.28 95.87 41.96 94.00 41.40 C 94.70 40.18 94.81 38.89 94.34 37.53 C 96.55 36.26 98.98 36.87 101.30 37.38 C 99.54 35.89 97.40 35.09 95.09 35.69 C 95.25 33.95 95.41 32.21 95.56 30.47 Z" />
<path fill="#fbe9d4" d=" M 85.99 53.35 C 86.01 45.53 85.82 37.26 89.44 30.10 C 89.65 34.20 93.63 31.11 95.56 30.47 C 95.41 32.21 95.25 33.95 95.09 35.69 C 93.64 36.76 92.39 38.08 91.36 39.55 C 91.89 40.75 92.39 41.96 92.88 43.18 C 94.81 43.25 96.74 43.29 98.68 43.21 C 98.23 43.45 97.33 43.94 96.88 44.18 C 97.32 44.64 98.22 45.56 98.66 46.02 C 97.00 46.40 95.32 46.58 93.62 46.56 C 93.39 45.97 92.94 44.79 92.71 44.20 C 91.88 46.80 93.91 47.71 96.08 47.98 C 92.75 49.83 89.49 51.82 85.99 53.35 Z" />
<path fill="#000000" d=" M 95.09 35.69 C 97.40 35.09 99.54 35.89 101.30 37.38 C 98.98 36.87 96.55 36.26 94.34 37.53 C 92.64 37.85 92.07 41.04 94.00 41.40 C 95.87 41.96 97.79 42.28 99.70 42.69 L 98.68 43.21 C 96.74 43.29 94.81 43.25 92.88 43.18 C 92.39 41.96 91.89 40.75 91.36 39.55 C 92.39 38.08 93.64 36.76 95.09 35.69 Z" />
<path fill="#98cafd" d=" M 34.51 41.13 C 36.88 38.89 39.72 37.27 42.73 36.08 C 43.58 38.29 45.70 37.46 47.49 37.24 C 48.48 39.23 50.82 39.04 52.64 39.61 C 50.45 41.52 47.32 39.63 44.74 39.59 C 41.40 40.51 37.92 40.66 34.51 41.13 Z" />
<path fill="#000000" d=" M 120.97 38.07 C 123.05 35.06 127.23 36.02 130.05 37.30 C 127.07 37.24 122.72 36.08 121.49 39.81 C 122.70 42.47 126.23 41.27 128.54 42.18 C 126.40 43.08 123.18 42.48 122.25 45.16 C 123.59 47.88 127.09 46.86 129.51 47.48 C 126.63 48.77 123.22 48.53 121.01 46.10 C 121.35 45.08 121.69 44.06 122.04 43.03 C 121.12 41.60 119.45 39.71 120.97 38.07 Z" />
<path fill="#ffffff" d=" M 94.00 41.40 C 92.07 41.04 92.64 37.85 94.34 37.53 C 94.81 38.89 94.70 40.18 94.00 41.40 Z" />
<path fill="#98cafd" d=" M 31.91 43.91 C 35.51 41.29 40.04 41.53 44.25 41.41 C 44.61 42.87 44.92 44.34 45.31 45.79 C 46.72 45.15 46.79 44.03 45.54 42.42 C 48.23 43.35 49.34 46.15 49.31 48.79 C 48.96 48.88 48.27 49.05 47.92 49.13 C 47.57 48.60 46.85 47.54 46.50 47.01 C 45.96 48.52 45.87 50.13 45.63 51.70 C 47.72 51.15 49.48 49.95 51.07 48.53 C 49.77 45.98 48.10 43.65 46.53 41.26 C 49.93 41.78 54.86 40.21 56.86 43.99 C 57.29 47.26 55.17 50.04 53.34 52.51 C 49.32 57.87 45.73 63.84 40.00 67.58 C 40.82 63.50 43.49 59.95 43.57 55.70 C 44.56 55.21 45.54 54.72 46.52 54.23 C 45.69 52.45 44.87 50.68 44.06 48.91 C 43.25 49.14 41.63 49.61 40.82 49.85 C 38.37 47.17 35.26 45.27 31.91 43.91 Z" />
<path fill="#98cafd" d=" M 27.63 46.73 C 32.13 43.86 37.40 47.46 40.13 51.14 C 41.46 54.15 43.30 57.58 41.91 60.90 C 40.72 64.03 38.76 66.82 36.68 69.42 C 37.04 65.17 38.05 60.91 37.31 56.64 C 33.18 57.33 29.35 59.08 25.48 60.60 C 23.07 56.19 23.07 49.75 27.63 46.73 Z" />
<path fill="#000000" d=" M 143.57 53.17 C 145.18 50.04 148.33 47.37 152.03 47.81 C 152.18 48.17 152.49 48.89 152.64 49.25 C 150.59 49.29 148.54 49.44 146.53 49.89 C 148.07 51.42 151.04 52.40 150.89 54.99 C 151.27 58.36 147.43 61.44 144.26 59.85 C 146.21 58.61 149.66 58.91 149.91 55.98 C 150.42 53.98 148.51 52.81 147.23 51.72 C 146.02 52.23 144.80 52.71 143.57 53.17 Z" />
<path fill="#000000" d=" M 25.79 52.40 C 26.49 50.15 28.20 47.65 30.90 48.09 C 33.58 48.19 34.01 51.17 34.41 53.22 C 33.52 53.71 31.05 56.23 31.54 53.68 C 30.94 51.61 29.31 55.33 28.53 55.74 C 28.13 54.50 28.80 53.34 29.13 52.18 C 28.29 52.24 26.63 52.34 25.79 52.40 Z" />
<path fill="#98cafd" d=" M 28.21 51.00 C 27.95 49.65 28.53 49.13 29.92 49.45 C 30.19 50.84 29.62 51.36 28.21 51.00 Z" />
<path fill="#98cafd" d=" M 56.54 48.37 C 60.15 48.18 62.56 51.28 65.36 53.07 C 64.89 55.28 63.45 56.96 61.72 58.33 C 59.79 55.54 57.43 53.10 55.36 50.42 C 58.16 51.60 60.60 53.45 63.25 54.92 C 61.24 52.48 58.11 51.17 56.54 48.37 Z" />
<path fill="#fbe9d4" d=" M 81.16 65.14 C 83.08 56.09 91.59 49.18 100.73 48.55 C 97.83 50.29 94.88 52.08 92.54 54.57 C 89.93 57.33 89.77 61.43 89.94 65.01 C 90.25 70.34 94.43 74.15 97.59 78.03 C 93.43 78.88 88.61 79.80 84.86 77.20 C 80.91 74.72 80.13 69.36 81.16 65.14 Z" />
<path fill="#98cafd" d=" M 31.07 49.95 C 32.65 49.41 33.24 49.96 32.83 51.62 C 31.24 52.16 30.66 51.60 31.07 49.95 Z" />
<path fill="#98cafd" d=" M 42.04 50.44 C 43.69 49.78 44.31 50.25 43.90 51.85 C 42.25 52.51 41.63 52.04 42.04 50.44 Z" />
<path fill="#98cafd" d=" M 54.29 52.37 C 57.32 53.65 59.23 56.34 60.85 59.06 C 60.14 59.39 58.73 60.05 58.03 60.38 C 56.86 57.67 55.51 55.06 54.29 52.37 Z" />
<path fill="#986634" d=" M 51.70 63.92 C 50.72 61.28 50.12 57.87 52.35 55.69 C 55.16 61.83 57.70 68.54 63.03 72.98 C 65.12 72.01 67.30 71.04 69.67 71.42 C 69.84 75.47 69.26 79.54 69.73 83.58 C 71.08 89.22 75.59 93.63 76.50 99.43 C 76.14 99.79 75.43 100.52 75.08 100.88 C 71.16 95.22 69.15 88.46 64.89 83.02 C 60.26 76.84 54.57 71.23 51.70 63.92 Z" />
<path fill="#ffffff" d=" M 150.75 65.74 C 154.40 63.60 156.58 59.91 158.00 56.03 L 158.00 141.00 L 138.20 141.00 C 140.90 140.03 144.51 138.46 144.35 135.02 C 144.54 131.42 141.71 128.81 140.60 125.62 C 139.82 122.17 140.65 118.63 140.86 115.15 C 142.62 115.85 144.31 116.82 146.20 117.12 C 148.63 116.68 151.06 116.06 153.39 115.23 C 155.77 113.20 155.92 109.75 155.63 106.87 C 154.23 97.04 148.72 88.53 145.57 79.26 C 148.24 75.16 150.05 70.58 150.75 65.74 Z" />
<path fill="#000000" d=" M 134.40 68.92 C 135.19 71.35 135.84 74.15 134.79 76.58 C 132.32 79.75 127.85 78.42 124.68 77.31 C 127.43 76.39 130.34 77.12 133.14 77.30 C 134.56 74.72 134.14 71.73 134.40 68.92 Z" />
<path fill="#000000" d=" M 27.21 83.42 C 29.01 79.84 30.27 75.85 33.46 73.18 C 34.79 75.92 35.87 78.79 37.47 81.40 C 42.56 88.88 44.04 98.16 44.66 107.00 C 45.25 110.95 42.59 114.13 40.83 117.36 C 48.01 119.76 53.43 126.65 54.51 134.07 C 55.05 136.93 52.53 139.26 49.86 139.55 C 47.59 140.27 45.84 138.25 44.01 137.29 C 39.03 140.34 33.32 138.72 28.10 137.40 C 24.04 136.11 20.13 139.34 16.09 138.08 C 14.31 137.57 13.71 135.56 12.65 134.25 C 8.51 134.94 4.00 137.69 0.00 135.10 L 0.00 130.84 C 2.38 127.63 4.42 124.12 7.33 121.34 C 9.39 119.18 12.62 119.88 15.30 119.43 C 11.05 112.03 14.78 103.61 17.71 96.50 C 20.20 91.37 19.34 85.38 21.86 80.29 C 22.66 82.14 23.35 84.03 24.01 85.94 C 24.30 85.52 24.87 84.67 25.16 84.24 C 25.67 84.04 26.69 83.63 27.21 83.42 Z" />
<path fill="#fe3200" d=" M 28.03 87.18 C 29.55 83.32 31.02 79.43 32.88 75.72 C 34.32 78.99 36.07 82.10 37.86 85.19 C 40.81 90.01 39.70 95.93 41.70 101.07 C 43.74 107.18 43.13 115.61 36.68 118.79 C 36.86 116.66 38.07 114.71 38.20 112.60 C 36.68 106.43 36.08 100.05 34.17 93.98 C 30.97 98.07 30.17 103.40 28.15 108.08 C 27.22 107.41 26.28 106.74 25.35 106.08 C 23.12 111.23 22.65 117.04 19.49 121.81 C 16.90 118.82 14.90 115.03 15.04 110.98 C 14.97 107.41 16.61 104.16 17.97 100.96 C 20.13 95.93 20.86 90.45 21.63 85.08 C 22.16 86.05 23.22 88.00 23.74 88.97 C 24.85 87.49 26.07 86.03 28.03 87.18 Z" />
<path fill="#fbe9d4" d=" M 92.99 80.07 C 95.04 79.57 97.09 79.03 99.14 78.51 C 99.40 81.87 101.47 84.69 105.04 84.84 C 104.39 84.77 103.11 84.63 102.47 84.56 C 98.82 84.50 95.29 82.95 92.99 80.07 Z" />
<path fill="#ffcc99" d=" M 116.56 86.55 C 126.02 86.29 135.39 84.24 143.92 80.15 C 148.38 84.90 149.78 91.57 151.68 97.61 C 152.92 102.76 154.73 108.48 152.65 113.62 C 150.41 114.26 148.15 114.79 145.97 115.62 C 146.37 111.76 147.49 107.92 147.16 104.03 C 146.31 101.15 144.60 98.63 142.84 96.24 C 142.20 96.09 140.92 95.78 140.28 95.62 C 139.88 95.53 139.09 95.35 138.70 95.27 C 138.56 98.24 138.69 101.23 139.13 104.18 C 133.27 104.19 127.70 101.53 123.53 97.52 C 120.50 94.37 118.60 90.37 116.56 86.55 Z" />
<path fill="#fbe9d4" d=" M 76.50 99.43 C 86.05 98.43 91.56 89.71 98.93 84.67 C 99.18 86.85 99.27 89.04 99.34 91.23 C 99.20 91.30 98.94 91.45 98.80 91.52 C 93.61 94.03 89.31 98.26 83.56 99.59 C 80.78 100.05 78.43 102.07 78.32 105.02 C 79.58 107.64 81.84 109.60 83.67 111.82 C 82.19 112.23 80.72 112.97 79.15 112.87 C 75.87 111.60 74.93 107.93 73.83 104.97 L 79.06 109.66 C 78.47 107.61 73.16 103.99 75.08 100.88 C 75.43 100.52 76.14 99.79 76.50 99.43 Z" />
<path fill="#6b4b26" d=" M 102.47 84.56 C 103.11 84.63 104.39 84.77 105.04 84.84 C 108.36 85.20 111.71 85.30 115.06 85.26 C 112.69 85.47 110.32 85.70 107.96 85.95 C 109.17 87.35 110.45 88.69 111.86 89.90 C 113.28 93.22 115.15 96.34 117.36 99.21 C 118.77 102.75 122.29 104.69 125.33 106.64 C 127.11 107.89 129.25 108.32 131.38 108.37 L 131.88 108.48 C 131.84 108.72 131.76 109.18 131.71 109.41 C 131.45 110.76 131.19 112.12 130.94 113.47 C 129.18 111.79 127.41 110.11 125.63 108.45 C 126.75 113.30 128.34 118.13 128.03 123.18 C 124.70 120.06 121.47 116.82 118.05 113.80 C 118.35 116.69 118.63 119.58 118.77 122.49 C 117.00 120.17 115.60 117.61 114.42 114.95 C 114.43 116.71 114.42 118.48 114.42 120.24 C 113.75 120.84 112.42 122.04 111.75 122.63 C 111.50 122.80 110.99 123.12 110.73 123.29 L 109.88 122.19 C 106.70 117.79 103.83 112.95 99.08 110.04 C 98.84 105.99 98.85 101.91 99.32 97.88 C 99.98 98.07 101.28 98.46 101.93 98.66 C 101.34 96.11 100.68 93.57 100.05 91.03 C 99.58 88.57 100.49 86.11 102.47 84.56 Z" />
<path fill="#b37936" d=" M 103.20 86.11 C 104.85 85.68 105.42 86.26 104.89 87.85 C 103.24 88.28 102.67 87.70 103.20 86.11 Z" />
<path fill="#fbe9d4" d=" M 110.59 86.40 C 112.58 86.45 114.57 86.51 116.56 86.55 C 118.60 90.37 120.50 94.37 123.53 97.52 C 127.70 101.53 133.27 104.19 139.13 104.18 C 139.13 106.28 138.90 108.38 138.39 110.42 C 136.23 109.73 134.10 108.96 131.88 108.48 L 131.38 108.37 C 126.23 106.14 121.35 103.20 117.36 99.21 C 115.15 96.34 113.28 93.22 111.86 89.90 C 111.54 89.02 110.91 87.27 110.59 86.40 Z" />
<path fill="#ffcc99" d=" M 83.56 99.59 C 89.31 98.26 93.61 94.03 98.80 91.52 C 97.32 99.25 87.37 101.04 85.79 108.80 C 84.82 107.92 83.83 107.06 82.85 106.20 C 82.68 104.37 83.08 102.20 81.56 100.82 C 81.35 103.04 81.21 105.26 80.92 107.47 C 81.41 107.50 82.39 107.56 82.88 107.58 C 83.23 108.21 83.94 109.48 84.30 110.11 C 84.14 110.54 83.83 111.39 83.67 111.82 C 81.84 109.60 79.58 107.64 78.32 105.02 C 78.43 102.07 80.78 100.05 83.56 99.59 Z" />
<path fill="#b37936" d=" M 100.05 91.03 C 100.68 93.57 101.34 96.11 101.93 98.66 C 101.28 98.46 99.98 98.07 99.32 97.88 C 99.46 95.58 99.67 93.29 100.05 91.03 Z" />
<path fill="#fbe9d4" d=" M 140.28 95.62 C 140.92 95.78 142.20 96.09 142.84 96.24 C 144.60 98.63 146.31 101.15 147.16 104.03 C 147.49 107.92 146.37 111.76 145.97 115.62 C 144.86 115.08 143.74 114.56 142.63 114.03 C 143.10 110.32 144.47 106.46 143.25 102.76 C 142.27 100.37 141.02 98.11 140.28 95.62 Z" />
<path fill="#fe9800" d=" M 28.21 109.46 C 30.73 105.26 31.66 100.37 33.92 96.05 C 34.94 102.85 37.68 109.58 36.43 116.56 C 33.89 116.43 31.38 116.77 28.99 117.64 C 28.46 117.42 27.40 116.98 26.87 116.75 C 25.84 116.38 24.80 116.02 23.76 115.70 C 23.74 112.80 24.64 110.03 25.73 107.39 C 26.35 107.91 27.59 108.95 28.21 109.46 Z" />
<path fill="#986634" d=" M 128.11 98.18 C 129.75 97.68 130.28 98.24 129.72 99.86 C 128.08 100.37 127.55 99.81 128.11 98.18 Z" />
<path fill="#ffffff" d=" M 87.62 109.79 C 88.83 104.71 92.62 100.51 97.51 98.70 C 96.65 107.42 97.24 116.15 98.15 124.82 C 94.35 120.02 91.47 114.57 87.62 109.79 Z" />
<path fill="#000000" d=" M 125.33 106.64 C 122.29 104.69 118.77 102.75 117.36 99.21 C 121.35 103.20 126.23 106.14 131.38 108.37 C 129.25 108.32 127.11 107.89 125.33 106.64 Z" />
<path fill="#ffffff" d=" M 140.92 102.79 C 142.12 105.50 142.32 108.51 141.68 111.40 C 139.38 109.13 140.73 105.58 140.92 102.79 Z" />
<path fill="#b37936" d=" M 125.63 108.45 C 127.41 110.11 129.18 111.79 130.94 113.47 C 131.19 112.12 131.45 110.76 131.71 109.41 C 134.05 110.10 136.40 110.76 138.77 111.38 C 139.04 115.67 139.20 120.01 138.30 124.24 C 136.53 123.83 134.77 123.36 132.96 123.18 C 131.07 123.41 129.71 124.89 128.19 125.88 C 125.70 123.69 122.66 124.22 119.88 125.47 C 118.15 123.90 116.34 122.40 114.42 121.07 L 114.42 120.24 C 114.42 118.48 114.43 116.71 114.42 114.95 C 115.60 117.61 117.00 120.17 118.77 122.49 C 118.63 119.58 118.35 116.69 118.05 113.80 C 121.47 116.82 124.70 120.06 128.03 123.18 C 128.34 118.13 126.75 113.30 125.63 108.45 Z" />
<path fill="#986634" d=" M 84.53 114.42 C 83.39 112.98 85.43 111.70 85.93 110.46 C 92.86 119.21 98.72 128.74 104.66 138.17 C 103.96 138.51 102.55 139.17 101.85 139.51 C 95.69 131.43 90.20 122.85 84.53 114.42 Z" />
<path fill="#b37936" d=" M 99.08 110.04 C 103.83 112.95 106.70 117.79 109.88 122.19 L 109.59 123.77 C 106.70 121.43 103.36 119.76 99.56 120.65 C 99.47 117.11 99.36 113.57 99.08 110.04 Z" />
<path fill="#986500" d=" M 23.76 115.70 C 24.80 116.02 25.84 116.38 26.87 116.75 C 26.28 116.84 25.11 117.02 24.53 117.10 C 25.66 117.52 26.79 117.93 27.92 118.35 C 27.67 120.38 27.42 122.43 26.83 124.39 C 26.02 126.78 25.14 129.13 24.21 131.47 C 23.47 133.54 22.24 135.38 20.95 137.14 C 18.66 137.17 15.43 136.91 15.24 133.98 C 15.18 126.88 21.85 122.08 23.76 115.70 Z" />
<path fill="#986500" d=" M 28.66 119.73 C 30.38 118.40 32.54 116.07 34.84 117.60 C 38.85 120.63 39.43 126.08 40.68 130.60 C 40.94 132.63 42.01 134.83 41.19 136.82 C 38.77 137.92 35.66 138.44 33.31 136.85 C 31.19 135.46 30.13 132.99 29.67 130.59 C 29.52 129.73 29.36 128.87 29.20 128.02 C 28.74 125.28 28.79 122.49 28.66 119.73 Z" />
<path fill="#986500" d=" M 38.95 120.07 C 46.09 118.94 51.33 125.84 52.78 132.07 C 53.80 134.91 51.44 138.60 48.27 137.92 C 42.41 134.05 40.02 126.69 38.95 120.07 Z" />
<path fill="#986500" d=" M 3.01 129.03 C 4.90 126.23 7.09 123.38 10.14 121.79 C 12.92 121.03 15.84 121.40 18.66 121.58 C 18.14 125.60 15.44 128.89 13.00 131.96 C 9.86 133.75 6.05 134.91 2.41 134.62 C 0.86 132.95 2.08 130.68 3.01 129.03 Z" />
<path fill="#fbe9d4" d=" M 101.78 121.54 C 103.24 121.95 104.70 122.37 106.15 122.83 C 104.75 126.12 103.45 129.44 102.21 132.79 C 100.14 129.45 98.40 124.67 101.78 121.54 Z" />
<path fill="#ffcc99" d=" M 111.75 122.63 C 112.34 122.46 113.51 122.10 114.10 121.92 C 113.78 123.72 113.46 125.93 111.52 126.72 C 109.41 128.06 107.55 125.74 105.80 124.87 C 106.46 125.90 106.93 127.15 107.97 127.88 C 109.53 127.89 111.09 127.85 112.65 127.75 C 112.94 129.96 113.27 132.17 113.62 134.39 C 109.92 136.74 104.88 136.56 102.21 132.79 C 103.45 129.44 104.75 126.12 106.15 122.83 C 107.05 123.39 107.96 123.94 108.88 124.49 C 109.34 124.19 110.27 123.59 110.73 123.29 C 110.99 123.12 111.50 122.80 111.75 122.63 Z" />
<path fill="#4a3013" d=" M 24.21 131.47 C 25.14 129.13 26.02 126.78 26.83 124.39 C 27.66 125.57 28.55 126.72 29.20 128.02 C 29.36 128.87 29.52 129.73 29.67 130.59 C 29.74 132.39 29.54 134.18 29.41 135.98 C 28.55 136.05 26.84 136.19 25.98 136.27 C 25.38 134.67 24.80 133.07 24.21 131.47 Z" />
<path fill="#ffffff" d=" M 115.10 134.55 C 114.89 131.07 113.38 127.49 115.32 124.19 C 116.57 125.16 117.77 126.21 119.10 127.06 C 120.68 126.89 122.26 126.65 123.82 126.34 C 122.90 129.61 121.40 132.71 120.75 136.06 C 120.33 138.19 122.19 139.60 123.43 141.00 L 104.21 141.00 C 105.20 140.02 106.15 139.01 107.10 138.00 C 109.79 137.35 113.97 137.71 115.10 134.55 Z" />
<path fill="#ffcc99" d=" M 130.44 125.55 C 134.30 122.67 138.66 125.92 140.64 129.39 C 142.01 131.81 143.81 135.19 141.60 137.67 C 138.29 140.22 133.88 139.30 130.12 138.50 C 129.54 134.19 129.71 129.83 130.44 125.55 Z" />
<path fill="#fbe9d4" d=" M 125.34 125.84 C 127.05 126.23 128.80 126.21 130.44 125.55 C 129.71 129.83 129.54 134.19 130.12 138.50 C 127.77 138.98 124.63 140.54 122.94 137.99 C 122.30 133.77 124.75 129.93 125.34 125.84 Z" />
<path fill="#fbe9d4" d=" M 83.60 134.81 C 85.76 131.45 89.99 130.76 93.58 129.88 C 94.69 131.75 95.80 133.62 96.86 135.52 C 92.45 135.91 87.42 138.05 83.60 134.81 Z" />
<path fill="#986634" d=" M 129.08 141.00 C 128.88 139.26 132.14 139.20 131.84 141.00 L 129.08 141.00 Z" />
</svg>
